<svg width="19" height="21" viewBox="0 0 19 21" fill="none" xmlns="http://www.w3.org/2000/svg">
<path d="M13.0049 15.5927C13.4215 15.5927 13.7755 15.4467 14.0669 15.1547C14.3589 14.8634 14.5049 14.5094 14.5049 14.0927C14.5049 13.6761 14.3589 13.3221 14.0669 13.0307C13.7755 12.7387 13.4215 12.5927 13.0049 12.5927C12.5882 12.5927 12.2342 12.7387 11.9429 13.0307C11.6509 13.3221 11.5049 13.6761 11.5049 14.0927C11.5049 14.5094 11.6509 14.8634 11.9429 15.1547C12.2342 15.4467 12.5882 15.5927 13.0049 15.5927ZM13.0049 18.5927C13.5215 18.5927 13.9965 18.4717 14.4299 18.2297C14.8632 17.9884 15.2132 17.6677 15.4799 17.2677C15.1132 17.0511 14.7215 16.8844 14.3049 16.7677C13.8882 16.6511 13.4549 16.5927 13.0049 16.5927C12.5549 16.5927 12.1215 16.6511 11.7049 16.7677C11.2882 16.8844 10.8965 17.0511 10.5299 17.2677C10.7965 17.6677 11.1465 17.9884 11.5799 18.2297C12.0132 18.4717 12.4882 18.5927 13.0049 18.5927ZM8.00488 20.5927C5.68822 20.0094 3.77588 18.6801 2.26788 16.6047C0.759216 14.5301 0.00488281 12.2261 0.00488281 9.69274V3.59274L8.00488 0.592743L16.0049 3.59274V9.26774C15.6882 9.13441 15.3632 9.01341 15.0299 8.90474C14.6965 8.79674 14.3549 8.71774 14.0049 8.66774V4.99274L8.00488 2.74274L2.00488 4.99274V9.69274C2.00488 10.4761 2.10888 11.2594 2.31688 12.0427C2.52555 12.8261 2.81755 13.5721 3.19288 14.2807C3.56755 14.9887 4.02155 15.6427 4.55488 16.2427C5.08822 16.8427 5.67988 17.3427 6.32988 17.7427C6.51322 18.2761 6.75488 18.7844 7.05488 19.2677C7.35488 19.7511 7.69655 20.1844 8.07988 20.5677C8.06322 20.5677 8.05088 20.5721 8.04288 20.5807C8.03422 20.5887 8.02155 20.5927 8.00488 20.5927ZM13.0049 20.5927C11.6215 20.5927 10.4425 20.1054 9.46788 19.1307C8.49255 18.1554 8.00488 16.9761 8.00488 15.5927C8.00488 14.2094 8.49255 13.0301 9.46788 12.0547C10.4425 11.0801 11.6215 10.5927 13.0049 10.5927C14.3882 10.5927 15.5675 11.0801 16.5429 12.0547C17.5175 13.0301 18.0049 14.2094 18.0049 15.5927C18.0049 16.9761 17.5175 18.1554 16.5429 19.1307C15.5675 20.1054 14.3882 20.5927 13.0049 20.5927Z" fill="#F1F1F1"/>
</svg>
