<svg width="100" height="100" viewBox="0 0 100 100" fill="none" xmlns="http://www.w3.org/2000/svg">
<g clip-path="url(#clip0_113_941)">
<path d="M50.0002 8.33331C73.0127 8.33331 91.6668 26.9875 91.6668 50C91.6668 53.0291 91.346 55.9791 90.7293 58.825L83.3043 51.3958C83.6101 44.0823 81.4999 36.8714 77.2996 30.8765C73.0993 24.8816 67.0425 20.436 60.0642 18.2259C53.0859 16.0158 45.5741 16.1643 38.6885 18.6483C31.803 21.1323 25.9265 25.8137 21.9663 31.9699C18.0061 38.126 16.1824 45.4146 16.7768 52.7103C17.3712 60.0061 20.3506 66.9033 25.255 72.3373C30.1594 77.7713 36.7162 81.4398 43.913 82.7765C51.1099 84.1132 58.5466 83.0438 65.0752 79.7333C66.6655 82.2538 68.903 84.3014 71.5543 85.6625C65.0552 89.6003 57.5992 91.6772 50.0002 91.6666C26.9877 91.6666 8.3335 73.0125 8.3335 50C8.3335 26.9875 26.9877 8.33331 50.0002 8.33331ZM79.1668 59.05L85.0585 64.9416C86.2054 66.0881 86.9929 67.5444 87.3244 69.1318C87.6559 70.7192 87.517 72.3689 86.9247 73.8786C86.3325 75.3883 85.3126 76.6923 83.9902 77.6309C82.6677 78.5695 81.1002 79.1019 79.4796 79.1627C77.8591 79.2236 76.256 78.8102 74.8669 77.9734C73.4778 77.1366 72.363 75.9127 71.6593 74.4517C70.9555 72.9907 70.6933 71.3561 70.9049 69.7482C71.1164 68.1404 71.7924 66.6292 72.8502 65.4L73.2752 64.9416L79.1668 59.05ZM50.0002 62.5C56.1085 62.5 61.6043 65.1291 65.4168 69.3208L61.4793 72.9041C58.1877 71.5916 54.2418 70.8333 50.0002 70.8333C45.7585 70.8333 41.8127 71.5958 38.521 72.9L34.5835 69.3166C36.5344 67.1664 38.9142 65.4489 41.5696 64.2748C44.2249 63.1007 47.0968 62.4961 50.0002 62.5ZM35.4168 41.6666C37.0744 41.6666 38.6641 42.3251 39.8363 43.4972C41.0084 44.6693 41.6668 46.259 41.6668 47.9166C41.6668 49.5742 41.0084 51.164 39.8363 52.3361C38.6641 53.5082 37.0744 54.1666 35.4168 54.1666C33.7592 54.1666 32.1695 53.5082 30.9974 52.3361C29.8253 51.164 29.1668 49.5742 29.1668 47.9166C29.1668 46.259 29.8253 44.6693 30.9974 43.4972C32.1695 42.3251 33.7592 41.6666 35.4168 41.6666ZM64.5835 41.6666C66.2411 41.6666 67.8308 42.3251 69.0029 43.4972C70.175 44.6693 70.8335 46.259 70.8335 47.9166C70.8335 49.5742 70.175 51.164 69.0029 52.3361C67.8308 53.5082 66.2411 54.1666 64.5835 54.1666C62.9259 54.1666 61.3362 53.5082 60.1641 52.3361C58.992 51.164 58.3335 49.5742 58.3335 47.9166C58.3335 46.259 58.992 44.6693 60.1641 43.4972C61.3362 42.3251 62.9259 41.6666 64.5835 41.6666Z" fill="black"/>
</g>
<defs>
<clipPath id="clip0_113_941">
<rect width="100" height="100" fill="white"/>
</clipPath>
</defs>
</svg>
