<svg width="19" height="21" viewBox="0 0 19 21" fill="none" xmlns="http://www.w3.org/2000/svg">
<path d="M7.955 16.9427L4.405 13.3927L5.85501 11.9427L7.955 14.0427L12.155 9.84271L13.605 11.2927L7.955 16.9427ZM2.005 20.5927C1.455 20.5927 0.984005 20.397 0.592005 20.0057C0.200671 19.6137 0.00500488 19.1427 0.00500488 18.5927V4.59271C0.00500488 4.04271 0.200671 3.57205 0.592005 3.18071C0.984005 2.78871 1.455 2.59271 2.005 2.59271H3.005V0.592712H5.005V2.59271H13.005V0.592712H15.005V2.59271H16.005C16.555 2.59271 17.026 2.78871 17.418 3.18071C17.8093 3.57205 18.005 4.04271 18.005 4.59271V18.5927C18.005 19.1427 17.8093 19.6137 17.418 20.0057C17.026 20.397 16.555 20.5927 16.005 20.5927H2.005ZM2.005 18.5927H16.005V8.59271H2.005V18.5927ZM2.005 6.59271H16.005V4.59271H2.005V6.59271Z" fill="black"/>
</svg>
