<svg width="21" height="21" viewBox="0 0 21 21" fill="none" xmlns="http://www.w3.org/2000/svg">
<path d="M10.005 7.09082C9.20936 7.09082 8.44629 7.40689 7.88368 7.9695C7.32107 8.53211 7.005 9.29517 7.005 10.0908C7.005 10.8865 7.32107 11.6495 7.88368 12.2121C8.44629 12.7747 9.20936 13.0908 10.005 13.0908C10.8007 13.0908 11.5637 12.7747 12.1263 12.2121C12.6889 11.6495 13.005 10.8865 13.005 10.0908C13.005 9.29517 12.6889 8.53211 12.1263 7.9695C11.5637 7.40689 10.8007 7.09082 10.005 7.09082ZM10.005 5.09082C11.3311 5.09082 12.6029 5.6176 13.5405 6.55529C14.4782 7.49297 15.005 8.76474 15.005 10.0908C15.005 11.4169 14.4782 12.6887 13.5405 13.6264C12.6029 14.564 11.3311 15.0908 10.005 15.0908C8.67892 15.0908 7.40715 14.564 6.46947 13.6264C5.53179 12.6887 5.005 11.4169 5.005 10.0908C5.005 8.76474 5.53179 7.49297 6.46947 6.55529C7.40715 5.6176 8.67892 5.09082 10.005 5.09082ZM16.505 4.84082C16.505 5.17234 16.3733 5.49028 16.1389 5.7247C15.9045 5.95912 15.5865 6.09082 15.255 6.09082C14.9235 6.09082 14.6055 5.95912 14.3711 5.7247C14.1367 5.49028 14.005 5.17234 14.005 4.84082C14.005 4.5093 14.1367 4.19136 14.3711 3.95694C14.6055 3.72252 14.9235 3.59082 15.255 3.59082C15.5865 3.59082 15.9045 3.72252 16.1389 3.95694C16.3733 4.19136 16.505 4.5093 16.505 4.84082ZM10.005 2.09082C7.531 2.09082 7.12701 2.09782 5.97601 2.14882C5.19201 2.18582 4.666 2.29082 4.178 2.48082C3.744 2.64882 3.431 2.84982 3.098 3.18382C2.78501 3.48622 2.54436 3.8554 2.394 4.26382C2.204 4.75382 2.099 5.27882 2.063 6.06182C2.011 7.16582 2.005 7.55182 2.005 10.0908C2.005 12.5648 2.012 12.9688 2.063 14.1198C2.1 14.9028 2.205 15.4298 2.394 15.9168C2.564 16.3518 2.764 16.6648 3.096 16.9968C3.433 17.3328 3.746 17.5338 4.176 17.6998C4.67 17.8908 5.196 17.9968 5.97601 18.0328C7.08001 18.0848 7.466 18.0908 10.005 18.0908C12.479 18.0908 12.883 18.0838 14.034 18.0328C14.816 17.9958 15.343 17.8908 15.831 17.7018C16.264 17.5328 16.579 17.3318 16.911 16.9998C17.248 16.6628 17.449 16.3498 17.615 15.9198C17.805 15.4268 17.911 14.8998 17.947 14.1198C17.999 13.0158 18.005 12.6298 18.005 10.0908C18.005 7.61682 17.998 7.21282 17.947 6.06182C17.91 5.27982 17.805 4.75182 17.615 4.26382C17.4643 3.85582 17.2241 3.48678 16.912 3.18382C16.6097 2.87067 16.2405 2.62999 15.832 2.47982C15.342 2.28982 14.816 2.18482 14.034 2.14882C12.93 2.09682 12.544 2.09082 10.005 2.09082ZM10.005 0.0908203C12.722 0.0908203 13.061 0.10082 14.127 0.15082C15.192 0.20082 15.917 0.36782 16.555 0.61582C17.215 0.86982 17.771 1.21382 18.327 1.76882C18.8355 2.26872 19.229 2.87341 19.48 3.54082C19.727 4.17782 19.895 4.90382 19.945 5.96882C19.992 7.03482 20.005 7.37382 20.005 10.0908C20.005 12.8078 19.995 13.1468 19.945 14.2128C19.895 15.2778 19.727 16.0028 19.48 16.6408C19.2297 17.3086 18.8361 17.9134 18.327 18.4128C17.827 18.9211 17.2223 19.3146 16.555 19.5658C15.918 19.8128 15.192 19.9808 14.127 20.0308C13.061 20.0778 12.722 20.0908 10.005 20.0908C7.288 20.0908 6.949 20.0808 5.883 20.0308C4.818 19.9808 4.093 19.8128 3.455 19.5658C2.78733 19.3153 2.18253 18.9218 1.683 18.4128C1.17441 17.913 0.780936 17.3083 0.530005 16.6408C0.282005 16.0038 0.115005 15.2778 0.0650048 14.2128C0.0180048 13.1468 0.00500488 12.8078 0.00500488 10.0908C0.00500488 7.37382 0.0150048 7.03482 0.0650048 5.96882C0.115005 4.90282 0.282005 4.17882 0.530005 3.54082C0.780241 2.873 1.17381 2.26814 1.683 1.76882C2.18268 1.26005 2.78743 0.86655 3.455 0.61582C4.093 0.36782 4.817 0.20082 5.883 0.15082C6.949 0.10382 7.288 0.0908203 10.005 0.0908203Z" fill="white"/>
</svg>
