<svg width="21" height="21" viewBox="0 0 21 21" fill="none" xmlns="http://www.w3.org/2000/svg">
<path d="M10.0048 7.59274C9.20911 7.59274 8.44605 7.90881 7.88344 8.47142C7.32083 9.03403 7.00476 9.79709 7.00476 10.5927C7.00476 11.3884 7.32083 12.1515 7.88344 12.7141C8.44605 13.2767 9.20911 13.5927 10.0048 13.5927C10.8004 13.5927 11.5635 13.2767 12.1261 12.7141C12.6887 12.1515 13.0048 11.3884 13.0048 10.5927C13.0048 9.79709 12.6887 9.03403 12.1261 8.47142C11.5635 7.90881 10.8004 7.59274 10.0048 7.59274ZM10.0048 5.59274C11.3308 5.59274 12.6026 6.11953 13.5403 7.05721C14.478 7.99489 15.0048 9.26666 15.0048 10.5927C15.0048 11.9188 14.478 13.1906 13.5403 14.1283C12.6026 15.066 11.3308 15.5927 10.0048 15.5927C8.67868 15.5927 7.40691 15.066 6.46923 14.1283C5.53154 13.1906 5.00476 11.9188 5.00476 10.5927C5.00476 9.26666 5.53154 7.99489 6.46923 7.05721C7.40691 6.11953 8.67868 5.59274 10.0048 5.59274ZM16.5048 5.34274C16.5048 5.67426 16.3731 5.99221 16.1386 6.22663C15.9042 6.46105 15.5863 6.59274 15.2548 6.59274C14.9232 6.59274 14.6053 6.46105 14.3709 6.22663C14.1365 5.99221 14.0048 5.67426 14.0048 5.34274C14.0048 5.01122 14.1365 4.69328 14.3709 4.45886C14.6053 4.22444 14.9232 4.09274 15.2548 4.09274C15.5863 4.09274 15.9042 4.22444 16.1386 4.45886C16.3731 4.69328 16.5048 5.01122 16.5048 5.34274ZM10.0048 2.59274C7.53076 2.59274 7.12676 2.59974 5.97576 2.65074C5.19176 2.68774 4.66576 2.79274 4.17776 2.98274C3.74376 3.15074 3.43076 3.35174 3.09776 3.68574C2.78477 3.98814 2.54411 4.35733 2.39376 4.76574C2.20376 5.25574 2.09876 5.78074 2.06276 6.56374C2.01076 7.66774 2.00476 8.05374 2.00476 10.5927C2.00476 13.0667 2.01176 13.4707 2.06276 14.6217C2.09976 15.4047 2.20476 15.9317 2.39376 16.4187C2.56376 16.8537 2.76376 17.1667 3.09576 17.4987C3.43276 17.8347 3.74576 18.0357 4.17576 18.2017C4.66976 18.3927 5.19576 18.4987 5.97576 18.5347C7.07976 18.5867 7.46576 18.5927 10.0048 18.5927C12.4788 18.5927 12.8828 18.5857 14.0338 18.5347C14.8158 18.4977 15.3428 18.3927 15.8308 18.2037C16.2638 18.0347 16.5788 17.8337 16.9108 17.5017C17.2478 17.1647 17.4488 16.8517 17.6148 16.4217C17.8048 15.9287 17.9108 15.4017 17.9468 14.6217C17.9988 13.5177 18.0048 13.1317 18.0048 10.5927C18.0048 8.11874 17.9978 7.71474 17.9468 6.56374C17.9098 5.78174 17.8048 5.25374 17.6148 4.76574C17.4641 4.35774 17.2238 3.9887 16.9118 3.68574C16.6095 3.37259 16.2403 3.13191 15.8318 2.98174C15.3418 2.79174 14.8158 2.68674 14.0338 2.65074C12.9298 2.59874 12.5438 2.59274 10.0048 2.59274ZM10.0048 0.592743C12.7218 0.592743 13.0608 0.602743 14.1268 0.652743C15.1918 0.702743 15.9168 0.869743 16.5548 1.11774C17.2148 1.37174 17.7708 1.71574 18.3268 2.27074C18.8353 2.77064 19.2287 3.37533 19.4798 4.04274C19.7268 4.67974 19.8948 5.40574 19.9448 6.47074C19.9918 7.53674 20.0048 7.87574 20.0048 10.5927C20.0048 13.3097 19.9948 13.6487 19.9448 14.7147C19.8948 15.7797 19.7268 16.5047 19.4798 17.1427C19.2294 17.8105 18.8359 18.4154 18.3268 18.9147C17.8267 19.4231 17.2221 19.8165 16.5548 20.0677C15.9178 20.3147 15.1918 20.4827 14.1268 20.5327C13.0608 20.5797 12.7218 20.5927 10.0048 20.5927C7.28776 20.5927 6.94876 20.5827 5.88276 20.5327C4.81776 20.4827 4.09276 20.3147 3.45476 20.0677C2.78709 19.8172 2.18229 19.4237 1.68276 18.9147C1.17417 18.4149 0.780692 17.8102 0.529761 17.1427C0.281761 16.5057 0.114761 15.7797 0.0647607 14.7147C0.0177607 13.6487 0.00476074 13.3097 0.00476074 10.5927C0.00476074 7.87574 0.0147607 7.53674 0.0647607 6.47074C0.114761 5.40474 0.281761 4.68074 0.529761 4.04274C0.779997 3.37492 1.17356 2.77006 1.68276 2.27074C2.18243 1.76197 2.78719 1.36847 3.45476 1.11774C4.09276 0.869743 4.81676 0.702743 5.88276 0.652743C6.94876 0.605743 7.28776 0.592743 10.0048 0.592743Z" fill="black"/>
</svg>
