<svg width="21" height="21" viewBox="0 0 21 21" fill="none" xmlns="http://www.w3.org/2000/svg">
<path d="M10.0049 20.5927C8.63822 20.5927 7.34655 20.3301 6.12988 19.8047C4.91322 19.2801 3.85088 18.5634 2.94288 17.6547C2.03422 16.7467 1.31755 15.6844 0.792883 14.4677C0.26755 13.2511 0.00488281 11.9594 0.00488281 10.5927C0.00488281 9.20941 0.26755 7.91374 0.792883 6.70574C1.31755 5.49708 2.03422 4.43874 2.94288 3.53074C3.85088 2.62208 4.91322 1.90508 6.12988 1.37974C7.34655 0.855076 8.63822 0.592743 10.0049 0.592743C11.3882 0.592743 12.6839 0.855076 13.8919 1.37974C15.1005 1.90508 16.1589 2.62208 17.0669 3.53074C17.9755 4.43874 18.6922 5.49708 19.2169 6.70574C19.7422 7.91374 20.0049 9.20941 20.0049 10.5927C20.0049 11.9594 19.7422 13.2511 19.2169 14.4677C18.6922 15.6844 17.9755 16.7467 17.0669 17.6547C16.1589 18.5634 15.1005 19.2801 13.8919 19.8047C12.6839 20.3301 11.3882 20.5927 10.0049 20.5927ZM10.0049 18.5427C10.4382 17.9427 10.8132 17.3177 11.1299 16.6677C11.4465 16.0177 11.7049 15.3261 11.9049 14.5927H8.10488C8.30488 15.3261 8.56322 16.0177 8.87988 16.6677C9.19655 17.3177 9.57155 17.9427 10.0049 18.5427ZM7.40488 18.1427C7.10488 17.5927 6.84255 17.0217 6.61788 16.4297C6.39255 15.8384 6.20488 15.2261 6.05488 14.5927H3.10488C3.58822 15.4261 4.19222 16.1511 4.91688 16.7677C5.64222 17.3844 6.47155 17.8427 7.40488 18.1427ZM12.6049 18.1427C13.5382 17.8427 14.3672 17.3844 15.0919 16.7677C15.8172 16.1511 16.4215 15.4261 16.9049 14.5927H13.9549C13.8049 15.2261 13.6175 15.8384 13.3929 16.4297C13.1675 17.0217 12.9049 17.5927 12.6049 18.1427ZM2.25488 12.5927H5.65488C5.60488 12.2594 5.56722 11.9301 5.54188 11.6047C5.51722 11.2801 5.50488 10.9427 5.50488 10.5927C5.50488 10.2427 5.51722 9.90541 5.54188 9.58074C5.56722 9.25541 5.60488 8.92608 5.65488 8.59274H2.25488C2.17155 8.92608 2.10888 9.25541 2.06688 9.58074C2.02555 9.90541 2.00488 10.2427 2.00488 10.5927C2.00488 10.9427 2.02555 11.2801 2.06688 11.6047C2.10888 11.9301 2.17155 12.2594 2.25488 12.5927ZM7.65488 12.5927H12.3549C12.4049 12.2594 12.4425 11.9301 12.4679 11.6047C12.4925 11.2801 12.5049 10.9427 12.5049 10.5927C12.5049 10.2427 12.4925 9.90541 12.4679 9.58074C12.4425 9.25541 12.4049 8.92608 12.3549 8.59274H7.65488C7.60488 8.92608 7.56755 9.25541 7.54288 9.58074C7.51755 9.90541 7.50488 10.2427 7.50488 10.5927C7.50488 10.9427 7.51755 11.2801 7.54288 11.6047C7.56755 11.9301 7.60488 12.2594 7.65488 12.5927ZM14.3549 12.5927H17.7549C17.8382 12.2594 17.9009 11.9301 17.9429 11.6047C17.9842 11.2801 18.0049 10.9427 18.0049 10.5927C18.0049 10.2427 17.9842 9.90541 17.9429 9.58074C17.9009 9.25541 17.8382 8.92608 17.7549 8.59274H14.3549C14.4049 8.92608 14.4422 9.25541 14.4669 9.58074C14.4922 9.90541 14.5049 10.2427 14.5049 10.5927C14.5049 10.9427 14.4922 11.2801 14.4669 11.6047C14.4422 11.9301 14.4049 12.2594 14.3549 12.5927ZM13.9549 6.59274H16.9049C16.4215 5.75941 15.8172 5.03441 15.0919 4.41774C14.3672 3.80108 13.5382 3.34274 12.6049 3.04274C12.9049 3.59274 13.1675 4.16341 13.3929 4.75474C13.6175 5.34674 13.8049 5.95941 13.9549 6.59274ZM8.10488 6.59274H11.9049C11.7049 5.85941 11.4465 5.16774 11.1299 4.51774C10.8132 3.86774 10.4382 3.24274 10.0049 2.64274C9.57155 3.24274 9.19655 3.86774 8.87988 4.51774C8.56322 5.16774 8.30488 5.85941 8.10488 6.59274ZM3.10488 6.59274H6.05488C6.20488 5.95941 6.39255 5.34674 6.61788 4.75474C6.84255 4.16341 7.10488 3.59274 7.40488 3.04274C6.47155 3.34274 5.64222 3.80108 4.91688 4.41774C4.19222 5.03441 3.58822 5.75941 3.10488 6.59274Z" fill="#F1F1F1"/>
</svg>
