<svg width="24" height="25" viewBox="0 0 24 25" fill="none" xmlns="http://www.w3.org/2000/svg">
<g clip-path="url(#clip0_391_4)">
<path d="M18.537 20.2428C16.7224 21.8151 14.401 22.6791 12 22.6758C6.477 22.6758 2 18.1988 2 12.6758C2 7.15278 6.477 2.67578 12 2.67578C17.523 2.67578 22 7.15278 22 12.6758C22 14.8118 21.33 16.7918 20.19 18.4158L17 12.6758H20C19.9998 10.832 19.3628 9.04484 18.1967 7.61667C17.0305 6.1885 15.4069 5.20697 13.6003 4.83814C11.7938 4.4693 9.91533 4.7358 8.28268 5.59255C6.65002 6.44929 5.36342 7.84369 4.64052 9.53986C3.91762 11.236 3.80281 13.1298 4.31549 14.9009C4.82818 16.672 5.93689 18.2116 7.45408 19.2593C8.97127 20.3071 10.8038 20.7985 12.6416 20.6507C14.4795 20.5028 16.2099 19.7246 17.54 18.4478L18.537 20.2428Z" fill="white"/>
</g>
<defs>
<clipPath id="clip0_391_4">
<rect width="24" height="24" fill="white" transform="translate(0 0.675781)"/>
</clipPath>
</defs>
</svg>
