<svg width="24" height="25" viewBox="0 0 24 25" fill="none" xmlns="http://www.w3.org/2000/svg">
<g clip-path="url(#clip0_391_228)">
<path d="M19 21.6758H5C4.73478 21.6758 4.48043 21.5705 4.29289 21.3829C4.10536 21.1954 4 20.941 4 20.6758V11.6758H1L11.327 2.28782C11.5111 2.1203 11.7511 2.02747 12 2.02747C12.2489 2.02747 12.4889 2.1203 12.673 2.28782L23 11.6758H20V20.6758C20 20.941 19.8946 21.1954 19.7071 21.3829C19.5196 21.5705 19.2652 21.6758 19 21.6758ZM6 19.6758H18V9.83282L12 4.37882L6 9.83282V19.6758Z" fill="white"/>
</g>
<defs>
<clipPath id="clip0_391_228">
<rect width="24" height="24" fill="white" transform="translate(0 0.675781)"/>
</clipPath>
</defs>
</svg>
