<svg width="152" height="15" viewBox="0 0 152 15" fill="none" xmlns="http://www.w3.org/2000/svg">
<path d="M17.4049 13.9328C17.4582 14.0928 17.4849 14.1794 17.4849 14.1928C17.4849 14.4594 17.3582 14.5928 17.1049 14.5928H13.7849C13.4382 14.5928 13.1982 14.4594 13.0649 14.1928L11.0649 9.19276H10.6049V14.0528C10.6049 14.1994 10.5515 14.3261 10.4449 14.4328C10.3382 14.5394 10.2116 14.5928 10.0649 14.5928H7.42488C7.27822 14.5928 7.15155 14.5394 7.04488 14.4328C6.93822 14.3261 6.88488 14.1994 6.88488 14.0528V9.19276H6.42488L4.42488 14.1928C4.29155 14.4594 4.05155 14.5928 3.70488 14.5928H0.384883C0.131549 14.5928 0.00488281 14.4594 0.00488281 14.1928C0.00488281 14.1794 0.0315495 14.0928 0.0848828 13.9328L2.92488 7.29276L0.424883 1.25276C0.371549 1.09276 0.344883 0.999428 0.344883 0.972761C0.344883 0.852761 0.378216 0.759428 0.444883 0.692761C0.511549 0.626094 0.598216 0.592761 0.704883 0.592761H4.06488C4.33155 0.592761 4.51822 0.739428 4.62488 1.03276L6.48488 5.83276H6.88488V1.13276C6.88488 0.986095 6.93822 0.859428 7.04488 0.752761C7.15155 0.646094 7.27822 0.592761 7.42488 0.592761H10.0649C10.2116 0.592761 10.3382 0.646094 10.4449 0.752761C10.5515 0.859428 10.6049 0.986095 10.6049 1.13276V5.83276H11.0049L12.8649 1.03276C12.9715 0.739428 13.1582 0.592761 13.4249 0.592761H16.7849C16.8916 0.592761 16.9782 0.626094 17.0449 0.692761C17.1115 0.759428 17.1449 0.852761 17.1449 0.972761C17.1449 0.999428 17.1182 1.09276 17.0649 1.25276L14.5649 7.29276L17.4049 13.9328Z" fill="black"/>
<path d="M22.8771 13.9128C22.7037 14.3661 22.4037 14.5928 21.9771 14.5928H18.1971C18.0771 14.5928 17.9704 14.5528 17.8771 14.4728C17.7971 14.3794 17.7571 14.2728 17.7571 14.1528L17.7771 14.0328L22.1371 1.25276C22.1904 1.07943 22.2904 0.926095 22.4371 0.792761C22.5837 0.659428 22.7837 0.592761 23.0371 0.592761H28.5971C28.8504 0.592761 29.0504 0.659428 29.1971 0.792761C29.3437 0.926095 29.4437 1.07943 29.4971 1.25276L33.8571 14.0328L33.8771 14.1528C33.8771 14.2728 33.8304 14.3794 33.7371 14.4728C33.6571 14.5528 33.5571 14.5928 33.4371 14.5928H29.6571C29.2304 14.5928 28.9304 14.3661 28.7571 13.9128L28.2571 12.5128H23.3771L22.8771 13.9128ZM25.8171 4.45276L24.3971 8.61276H27.2371L25.8171 4.45276Z" fill="black"/>
<path d="M51.0093 13.8928C51.0626 13.9728 51.0893 14.0594 51.0893 14.1528C51.0893 14.2728 51.0426 14.3794 50.9493 14.4728C50.8693 14.5528 50.7693 14.5928 50.6493 14.5928H45.4893C45.1826 14.5928 44.9426 14.4861 44.7693 14.2728L41.6893 9.81276H41.0893V14.0528C41.0893 14.1994 41.0359 14.3261 40.9293 14.4328C40.8226 14.5394 40.6959 14.5928 40.5493 14.5928H36.4293C36.2826 14.5928 36.1559 14.5394 36.0493 14.4328C35.9426 14.3261 35.8893 14.1994 35.8893 14.0528V1.13276C35.8893 0.986095 35.9426 0.859428 36.0493 0.752761C36.1559 0.646094 36.2826 0.592761 36.4293 0.592761H40.5493C40.6959 0.592761 40.8226 0.646094 40.9293 0.752761C41.0359 0.859428 41.0893 0.986095 41.0893 1.13276V5.25276H41.5293L44.4493 0.932761C44.6493 0.706094 44.8959 0.592761 45.1893 0.592761H50.0093C50.1293 0.592761 50.2293 0.639428 50.3093 0.732761C50.4026 0.812761 50.4493 0.912762 50.4493 1.03276C50.4493 1.13943 50.4159 1.23276 50.3493 1.31276L45.6093 7.09276L51.0093 13.8928Z" fill="black"/>
<path d="M52.6014 14.5928C52.4548 14.5928 52.3281 14.5394 52.2214 14.4328C52.1148 14.3261 52.0614 14.1994 52.0614 14.0528V1.13276C52.0614 0.986095 52.1148 0.859428 52.2214 0.752761C52.3281 0.646094 52.4548 0.592761 52.6014 0.592761H55.8014C55.9481 0.592761 56.0748 0.646094 56.1814 0.752761C56.2881 0.859428 56.3414 0.986095 56.3414 1.13276V10.2928H57.7614V1.13276C57.7614 0.986095 57.8148 0.859428 57.9214 0.752761C58.0281 0.646094 58.1548 0.592761 58.3014 0.592761H61.1414C61.2881 0.592761 61.4148 0.646094 61.5214 0.752761C61.6281 0.859428 61.6814 0.986095 61.6814 1.13276V10.2928H63.1214V1.13276C63.1214 0.986095 63.1748 0.859428 63.2814 0.752761C63.3881 0.646094 63.5148 0.592761 63.6614 0.592761H66.8814C67.0281 0.592761 67.1548 0.646094 67.2615 0.752761C67.3681 0.846094 67.4214 0.972761 67.4214 1.13276V14.0528C67.4214 14.1994 67.3681 14.3261 67.2615 14.4328C67.1548 14.5394 67.0281 14.5928 66.8814 14.5928H52.6014Z" fill="black"/>
<path d="M74.0736 5.05276C75.727 5.05276 77.027 5.47943 77.9736 6.33276C78.9203 7.1861 79.3936 8.33943 79.3936 9.79276C79.3936 10.6994 79.1803 11.5194 78.7536 12.2528C78.3403 12.9728 77.7336 13.5461 76.9336 13.9728C76.1336 14.3861 75.187 14.5928 74.0936 14.5928H69.1136C68.967 14.5928 68.8403 14.5394 68.7336 14.4328C68.627 14.3261 68.5736 14.1994 68.5736 14.0528V1.13276C68.5736 0.986095 68.627 0.859428 68.7336 0.752761C68.8403 0.646094 68.967 0.592761 69.1136 0.592761H72.6336C72.7803 0.592761 72.907 0.646094 73.0136 0.752761C73.1203 0.859428 73.1736 0.986095 73.1736 1.13276V5.05276H74.0736ZM81.0936 14.5928C80.947 14.5928 80.8203 14.5394 80.7136 14.4328C80.607 14.3261 80.5536 14.1994 80.5536 14.0528V1.13276C80.5536 0.986095 80.607 0.859428 80.7136 0.752761C80.8203 0.646094 80.947 0.592761 81.0936 0.592761H84.3736C84.5203 0.592761 84.647 0.646094 84.7536 0.752761C84.8603 0.859428 84.9136 0.986095 84.9136 1.13276V14.0528C84.9136 14.1994 84.8603 14.3261 84.7536 14.4328C84.647 14.5394 84.5203 14.5928 84.3736 14.5928H81.0936ZM74.0736 10.8528C74.5003 10.8528 74.827 10.7528 75.0536 10.5528C75.2803 10.3528 75.3936 10.0794 75.3936 9.73276C75.3936 9.03943 74.9536 8.69276 74.0736 8.69276H73.1736V10.8528H74.0736Z" fill="black"/>
<path d="M119.358 13.9328C119.411 14.0928 119.438 14.1794 119.438 14.1928C119.438 14.4594 119.311 14.5928 119.058 14.5928H115.738C115.391 14.5928 115.151 14.4594 115.018 14.1928L113.018 9.19276H112.558V14.0528C112.558 14.1994 112.505 14.3261 112.398 14.4328C112.291 14.5394 112.165 14.5928 112.018 14.5928H109.378C109.231 14.5928 109.105 14.5394 108.998 14.4328C108.891 14.3261 108.838 14.1994 108.838 14.0528V9.19276H108.378L106.378 14.1928C106.245 14.4594 106.005 14.5928 105.658 14.5928H102.338C102.085 14.5928 101.958 14.4594 101.958 14.1928C101.958 14.1794 101.985 14.0928 102.038 13.9328L104.878 7.29276L102.378 1.25276C102.325 1.09276 102.298 0.999428 102.298 0.972761C102.298 0.852761 102.331 0.759428 102.398 0.692761C102.465 0.626094 102.551 0.592761 102.658 0.592761H106.018C106.285 0.592761 106.471 0.739428 106.578 1.03276L108.438 5.83276H108.838V1.13276C108.838 0.986095 108.891 0.859428 108.998 0.752761C109.105 0.646094 109.231 0.592761 109.378 0.592761H112.018C112.165 0.592761 112.291 0.646094 112.398 0.752761C112.505 0.859428 112.558 0.986095 112.558 1.13276V5.83276H112.958L114.818 1.03276C114.925 0.739428 115.111 0.592761 115.378 0.592761H118.738C118.845 0.592761 118.931 0.626094 118.998 0.692761C119.065 0.759428 119.098 0.852761 119.098 0.972761C119.098 0.999428 119.071 1.09276 119.018 1.25276L116.518 7.29276L119.358 13.9328Z" fill="black"/>
<path d="M135.15 8.81276C135.15 10.8528 134.47 12.3594 133.11 13.3328C131.764 14.3061 129.964 14.7928 127.71 14.7928C125.457 14.7928 123.65 14.3061 122.29 13.3328C120.944 12.3594 120.27 10.8394 120.27 8.77276V6.41276C120.27 5.05276 120.59 3.92609 121.23 3.03276C121.884 2.12609 122.77 1.45943 123.89 1.03276C125.01 0.606095 126.284 0.392761 127.71 0.392761C129.137 0.392761 130.404 0.606095 131.51 1.03276C132.63 1.45943 133.517 2.11943 134.17 3.01276C134.824 3.90609 135.15 5.02609 135.15 6.37276V8.81276ZM125.67 9.19276C125.67 9.73943 125.85 10.1594 126.21 10.4528C126.584 10.7461 127.084 10.8928 127.71 10.8928C128.337 10.8928 128.83 10.7461 129.19 10.4528C129.564 10.1461 129.75 9.71943 129.75 9.17276V6.01276C129.75 5.4661 129.564 5.04609 129.19 4.75276C128.83 4.44609 128.337 4.29276 127.71 4.29276C127.084 4.29276 126.584 4.43943 126.21 4.73276C125.85 5.02609 125.67 5.44609 125.67 5.99276V9.19276Z" fill="black"/>
<path d="M137.502 14.7928C137.356 14.7928 137.222 14.7394 137.102 14.6328C136.996 14.5261 136.942 14.3994 136.942 14.2528V11.0528C136.942 10.9061 136.996 10.7794 137.102 10.6728C137.209 10.5661 137.336 10.5128 137.482 10.5128C137.962 10.5128 138.329 9.95276 138.582 8.83276C138.836 7.71276 138.962 6.09276 138.962 3.97276V1.13276C138.962 0.986095 139.016 0.859428 139.122 0.752761C139.229 0.646094 139.356 0.592761 139.502 0.592761H150.862C151.009 0.592761 151.136 0.646094 151.242 0.752761C151.349 0.859428 151.402 0.986095 151.402 1.13276V14.0528C151.402 14.1994 151.349 14.3261 151.242 14.4328C151.136 14.5394 151.009 14.5928 150.862 14.5928H147.142C146.996 14.5928 146.869 14.5394 146.762 14.4328C146.656 14.3261 146.602 14.1994 146.602 14.0528V4.89276H143.562V5.91276C143.562 8.97943 143.049 11.2261 142.022 12.6528C140.996 14.0794 139.489 14.7928 137.502 14.7928Z" fill="black"/>
</svg>
