<svg width="21" height="26" viewBox="0 0 21 26" fill="none" xmlns="http://www.w3.org/2000/svg">
<path fill-rule="evenodd" clip-rule="evenodd" d="M16.4766 9.8392C16.4766 13.2906 13.6758 16.0886 10.2207 16.0886C6.76564 16.0886 3.96476 13.2906 3.96476 9.8392C3.96476 6.38776 6.76564 3.58982 10.2207 3.58982C13.6758 3.58982 16.4766 6.38776 16.4766 9.8392ZM10.1745 14.7345H10.1626L10.1686 14.7345L10.1745 14.7345ZM9.55999 14.6968C9.58312 14.528 9.5951 14.3554 9.5951 14.1798C9.5951 12.219 8.1013 10.6294 6.2586 10.6294C5.96033 10.6294 5.6712 10.6711 5.39606 10.7492C5.76643 12.819 7.45304 14.4332 9.55999 14.6968ZM5.32712 9.63088C5.46255 7.07709 7.57836 5.04801 10.1686 5.04801C12.7588 5.04801 14.8746 7.07709 15.0101 9.63088H5.32712ZM14.9458 10.7227C14.591 12.7715 12.9475 14.3793 10.8795 14.6828C10.8576 14.5185 10.8463 14.3506 10.8463 14.1798C10.8463 12.219 12.3401 10.6294 14.1828 10.6294C14.4453 10.6294 14.7007 10.6617 14.9458 10.7227ZM10.742 10.7766C10.742 11.0642 10.5086 11.2974 10.2207 11.2974C9.93275 11.2974 9.69934 11.0642 9.69934 10.7766C9.69934 10.489 9.93275 10.2558 10.2207 10.2558C10.5086 10.2558 10.742 10.489 10.742 10.7766Z" fill="black"/>
<path d="M10.005 0.089325C12.8619 0.089325 15.2441 1.06839 17.1518 3.02653C18.9503 4.8719 19.9014 7.14279 20.005 9.8392H17.5C17.4008 7.83191 16.6959 6.1493 15.3851 4.79136C13.9671 3.32317 12.1737 2.58908 10.005 2.58908C7.83627 2.58908 6.04292 3.32317 4.62491 4.79136C3.31412 6.1493 2.60918 7.83191 2.51005 9.8392H0.00500488C0.108596 7.14279 1.05966 4.8719 2.85821 3.02653C4.76584 1.06839 7.14813 0.089325 10.005 0.089325Z" fill="black"/>
<path d="M16.6964 13.5888C16.4118 14.2005 16.0527 14.8356 15.6191 15.494C14.3579 17.4105 12.4865 19.5041 10.005 21.7747C7.52348 19.5041 5.6517 17.4105 4.38966 15.494C3.95636 14.8356 3.59748 14.2005 3.31305 13.5888H0.613111C1.02748 14.7247 1.65028 15.9064 2.48161 17.1339C4.13987 19.582 6.64767 22.233 10.005 25.0868C13.3623 22.233 15.8698 19.582 17.5271 17.1339C18.3589 15.9064 18.982 14.7247 19.3966 13.5888H16.6964Z" fill="black"/>
</svg>
