<svg width="153" height="16" viewBox="0 0 153 16" fill="none" xmlns="http://www.w3.org/2000/svg">
<path d="M18.0075 14.4306C18.0609 14.5906 18.0875 14.6773 18.0875 14.6906C18.0875 14.9573 17.9609 15.0906 17.7075 15.0906H14.3875C14.0409 15.0906 13.8009 14.9573 13.6675 14.6906L11.6675 9.69063H11.2075V14.5506C11.2075 14.6973 11.1542 14.824 11.0475 14.9306C10.9409 15.0373 10.8142 15.0906 10.6675 15.0906H8.02754C7.88088 15.0906 7.75421 15.0373 7.64754 14.9306C7.54088 14.824 7.48755 14.6973 7.48755 14.5506V9.69063H7.02754L5.02754 14.6906C4.89421 14.9573 4.65421 15.0906 4.30754 15.0906H0.987544C0.734211 15.0906 0.607544 14.9573 0.607544 14.6906C0.607544 14.6773 0.634211 14.5906 0.687544 14.4306L3.52754 7.79063L1.02754 1.75062C0.974211 1.59063 0.947544 1.49729 0.947544 1.47062C0.947544 1.35062 0.980877 1.25729 1.04754 1.19062C1.11421 1.12396 1.20088 1.09062 1.30754 1.09062H4.66754C4.93421 1.09062 5.12088 1.23729 5.22754 1.53063L7.08754 6.33063H7.48755V1.63062C7.48755 1.48396 7.54088 1.35729 7.64754 1.25063C7.75421 1.14396 7.88088 1.09062 8.02754 1.09062H10.6675C10.8142 1.09062 10.9409 1.14396 11.0475 1.25063C11.1542 1.35729 11.2075 1.48396 11.2075 1.63062V6.33063H11.6075L13.4675 1.53063C13.5742 1.23729 13.7609 1.09062 14.0275 1.09062H17.3875C17.4942 1.09062 17.5809 1.12396 17.6475 1.19062C17.7142 1.25729 17.7475 1.35062 17.7475 1.47062C17.7475 1.49729 17.7209 1.59063 17.6675 1.75062L15.1675 7.79063L18.0075 14.4306Z" fill="white"/>
<path d="M23.4797 14.4106C23.3064 14.864 23.0064 15.0906 22.5797 15.0906H18.7997C18.6797 15.0906 18.5731 15.0506 18.4797 14.9706C18.3997 14.8773 18.3597 14.7706 18.3597 14.6506L18.3797 14.5306L22.7397 1.75062C22.7931 1.57729 22.8931 1.42396 23.0397 1.29062C23.1864 1.15729 23.3864 1.09062 23.6397 1.09062H29.1997C29.4531 1.09062 29.6531 1.15729 29.7997 1.29062C29.9464 1.42396 30.0464 1.57729 30.0997 1.75062L34.4597 14.5306L34.4797 14.6506C34.4797 14.7706 34.4331 14.8773 34.3397 14.9706C34.2597 15.0506 34.1597 15.0906 34.0397 15.0906H30.2597C29.8331 15.0906 29.5331 14.864 29.3597 14.4106L28.8597 13.0106H23.9797L23.4797 14.4106ZM26.4197 4.95063L24.9997 9.11063H27.8397L26.4197 4.95063Z" fill="white"/>
<path d="M51.6119 14.3906C51.6653 14.4706 51.6919 14.5573 51.6919 14.6506C51.6919 14.7706 51.6453 14.8773 51.5519 14.9706C51.4719 15.0506 51.3719 15.0906 51.2519 15.0906H46.0919C45.7853 15.0906 45.5452 14.984 45.3719 14.7706L42.2919 10.3106H41.6919V14.5506C41.6919 14.6973 41.6386 14.824 41.5319 14.9306C41.4253 15.0373 41.2986 15.0906 41.1519 15.0906H37.0319C36.8853 15.0906 36.7586 15.0373 36.6519 14.9306C36.5452 14.824 36.4919 14.6973 36.4919 14.5506V1.63062C36.4919 1.48396 36.5452 1.35729 36.6519 1.25063C36.7586 1.14396 36.8853 1.09062 37.0319 1.09062H41.1519C41.2986 1.09062 41.4253 1.14396 41.5319 1.25063C41.6386 1.35729 41.6919 1.48396 41.6919 1.63062V5.75063H42.1319L45.0519 1.43062C45.2519 1.20396 45.4986 1.09062 45.7919 1.09062H50.6119C50.7319 1.09062 50.8319 1.13729 50.9119 1.23063C51.0053 1.31062 51.0519 1.41063 51.0519 1.53063C51.0519 1.63729 51.0186 1.73063 50.9519 1.81063L46.2119 7.59062L51.6119 14.3906Z" fill="white"/>
<path d="M53.2041 15.0906C53.0574 15.0906 52.9308 15.0373 52.8241 14.9306C52.7174 14.824 52.6641 14.6973 52.6641 14.5506V1.63062C52.6641 1.48396 52.7174 1.35729 52.8241 1.25063C52.9308 1.14396 53.0574 1.09062 53.2041 1.09062H56.4041C56.5508 1.09062 56.6774 1.14396 56.7841 1.25063C56.8908 1.35729 56.9441 1.48396 56.9441 1.63062V10.7906H58.3641V1.63062C58.3641 1.48396 58.4174 1.35729 58.5241 1.25063C58.6308 1.14396 58.7574 1.09062 58.9041 1.09062H61.7441C61.8908 1.09062 62.0174 1.14396 62.1241 1.25063C62.2308 1.35729 62.2841 1.48396 62.2841 1.63062V10.7906H63.7241V1.63062C63.7241 1.48396 63.7774 1.35729 63.8841 1.25063C63.9908 1.14396 64.1174 1.09062 64.2641 1.09062H67.4841C67.6308 1.09062 67.7574 1.14396 67.8641 1.25063C67.9708 1.34396 68.0241 1.47062 68.0241 1.63062V14.5506C68.0241 14.6973 67.9708 14.824 67.8641 14.9306C67.7574 15.0373 67.6308 15.0906 67.4841 15.0906H53.2041Z" fill="white"/>
<path d="M74.6763 5.55062C76.3296 5.55062 77.6296 5.97729 78.5763 6.83063C79.523 7.68396 79.9963 8.83729 79.9963 10.2906C79.9963 11.1973 79.783 12.0173 79.3563 12.7506C78.943 13.4706 78.3363 14.044 77.5363 14.4706C76.7363 14.884 75.7896 15.0906 74.6963 15.0906H69.7163C69.5696 15.0906 69.443 15.0373 69.3363 14.9306C69.2296 14.824 69.1763 14.6973 69.1763 14.5506V1.63062C69.1763 1.48396 69.2296 1.35729 69.3363 1.25063C69.443 1.14396 69.5696 1.09062 69.7163 1.09062H73.2363C73.383 1.09062 73.5096 1.14396 73.6163 1.25063C73.723 1.35729 73.7763 1.48396 73.7763 1.63062V5.55062H74.6763ZM81.6963 15.0906C81.5496 15.0906 81.423 15.0373 81.3163 14.9306C81.2096 14.824 81.1563 14.6973 81.1563 14.5506V1.63062C81.1563 1.48396 81.2096 1.35729 81.3163 1.25063C81.423 1.14396 81.5496 1.09062 81.6963 1.09062H84.9763C85.123 1.09062 85.2496 1.14396 85.3563 1.25063C85.463 1.35729 85.5163 1.48396 85.5163 1.63062V14.5506C85.5163 14.6973 85.463 14.824 85.3563 14.9306C85.2496 15.0373 85.123 15.0906 84.9763 15.0906H81.6963ZM74.6763 11.3506C75.103 11.3506 75.4296 11.2506 75.6563 11.0506C75.883 10.8506 75.9963 10.5773 75.9963 10.2306C75.9963 9.53729 75.5563 9.19063 74.6763 9.19063H73.7763V11.3506H74.6763Z" fill="white"/>
<path d="M119.961 14.4306C120.014 14.5906 120.041 14.6773 120.041 14.6906C120.041 14.9573 119.914 15.0906 119.661 15.0906H116.341C115.994 15.0906 115.754 14.9573 115.621 14.6906L113.621 9.69063H113.161V14.5506C113.161 14.6973 113.107 14.824 113.001 14.9306C112.894 15.0373 112.767 15.0906 112.621 15.0906H109.981C109.834 15.0906 109.707 15.0373 109.601 14.9306C109.494 14.824 109.441 14.6973 109.441 14.5506V9.69063H108.981L106.981 14.6906C106.847 14.9573 106.607 15.0906 106.261 15.0906H102.941C102.687 15.0906 102.561 14.9573 102.561 14.6906C102.561 14.6773 102.587 14.5906 102.641 14.4306L105.481 7.79063L102.981 1.75062C102.927 1.59063 102.901 1.49729 102.901 1.47062C102.901 1.35062 102.934 1.25729 103.001 1.19062C103.067 1.12396 103.154 1.09062 103.261 1.09062H106.621C106.887 1.09062 107.074 1.23729 107.181 1.53063L109.041 6.33063H109.441V1.63062C109.441 1.48396 109.494 1.35729 109.601 1.25063C109.707 1.14396 109.834 1.09062 109.981 1.09062H112.621C112.767 1.09062 112.894 1.14396 113.001 1.25063C113.107 1.35729 113.161 1.48396 113.161 1.63062V6.33063H113.561L115.421 1.53063C115.527 1.23729 115.714 1.09062 115.981 1.09062H119.341C119.447 1.09062 119.534 1.12396 119.601 1.19062C119.667 1.25729 119.701 1.35062 119.701 1.47062C119.701 1.49729 119.674 1.59063 119.621 1.75062L117.121 7.79063L119.961 14.4306Z" fill="white"/>
<path d="M135.753 9.31063C135.753 11.3506 135.073 12.8573 133.713 13.8306C132.366 14.804 130.566 15.2906 128.313 15.2906C126.06 15.2906 124.253 14.804 122.893 13.8306C121.546 12.8573 120.873 11.3373 120.873 9.27063V6.91063C120.873 5.55062 121.193 4.42396 121.833 3.53063C122.486 2.62396 123.373 1.95729 124.493 1.53063C125.613 1.10396 126.886 0.890625 128.313 0.890625C129.74 0.890625 131.006 1.10396 132.113 1.53063C133.233 1.95729 134.12 2.61729 134.773 3.51062C135.426 4.40396 135.753 5.52396 135.753 6.87063V9.31063ZM126.273 9.69063C126.273 10.2373 126.453 10.6573 126.813 10.9506C127.186 11.244 127.686 11.3906 128.313 11.3906C128.94 11.3906 129.433 11.244 129.793 10.9506C130.166 10.644 130.353 10.2173 130.353 9.67063V6.51063C130.353 5.96396 130.166 5.54396 129.793 5.25063C129.433 4.94396 128.94 4.79062 128.313 4.79062C127.686 4.79062 127.186 4.93729 126.813 5.23063C126.453 5.52396 126.273 5.94396 126.273 6.49063V9.69063Z" fill="white"/>
<path d="M138.105 15.2906C137.958 15.2906 137.825 15.2373 137.705 15.1306C137.598 15.024 137.545 14.8973 137.545 14.7506V11.5506C137.545 11.404 137.598 11.2773 137.705 11.1706C137.812 11.064 137.938 11.0106 138.085 11.0106C138.565 11.0106 138.932 10.4506 139.185 9.33063C139.438 8.21063 139.565 6.59062 139.565 4.47062V1.63062C139.565 1.48396 139.618 1.35729 139.725 1.25063C139.832 1.14396 139.958 1.09062 140.105 1.09062H151.465C151.612 1.09062 151.738 1.14396 151.845 1.25063C151.952 1.35729 152.005 1.48396 152.005 1.63062V14.5506C152.005 14.6973 151.952 14.824 151.845 14.9306C151.738 15.0373 151.612 15.0906 151.465 15.0906H147.745C147.598 15.0906 147.472 15.0373 147.365 14.9306C147.258 14.824 147.205 14.6973 147.205 14.5506V5.39062H144.165V6.41063C144.165 9.47729 143.652 11.724 142.625 13.1506C141.598 14.5773 140.092 15.2906 138.105 15.2906Z" fill="white"/>
</svg>
