<svg width="21" height="17" viewBox="0 0 21 17" fill="none" xmlns="http://www.w3.org/2000/svg">
<path d="M2.00452 16.5927C1.45452 16.5927 0.98385 16.397 0.592517 16.0057C0.200517 15.6137 0.0045166 15.1427 0.0045166 14.5927V2.59271C0.0045166 2.04271 0.200517 1.57205 0.592517 1.18071C0.98385 0.788712 1.45452 0.592712 2.00452 0.592712H18.0045C18.5545 0.592712 19.0255 0.788712 19.4175 1.18071C19.8088 1.57205 20.0045 2.04271 20.0045 2.59271V14.5927C20.0045 15.1427 19.8088 15.6137 19.4175 16.0057C19.0255 16.397 18.5545 16.5927 18.0045 16.5927H2.00452ZM10.0045 9.59271L2.00452 4.59271V14.5927H18.0045V4.59271L10.0045 9.59271ZM10.0045 7.59271L18.0045 2.59271H2.00452L10.0045 7.59271ZM2.00452 4.59271V2.59271V14.5927V4.59271Z" fill="#F1F1F1"/>
</svg>
