<svg width="100" height="100" viewBox="0 0 100 100" fill="none" xmlns="http://www.w3.org/2000/svg">
<mask id="mask0_113_1050" style="mask-type:alpha" maskUnits="userSpaceOnUse" x="0" y="0" width="100" height="100">
<rect width="100" height="100" fill="#D9D9D9"/>
</mask>
<g mask="url(#mask0_113_1050)">
<path d="M50.0002 72.9167C54.7224 72.9167 59.0113 71.5806 62.8668 68.9084C66.7196 66.2334 69.514 62.7084 71.2502 58.3334H28.7502C30.4863 62.7084 33.2821 66.2334 37.1377 68.9084C40.9904 71.5806 45.2779 72.9167 50.0002 72.9167ZM32.5002 45.8334L37.0835 41.4584L41.4585 45.8334L45.8335 41.4584L37.0835 32.5L28.1252 41.4584L32.5002 45.8334ZM58.5418 45.8334L62.9168 41.4584L67.5002 45.8334L71.8752 41.4584L62.9168 32.5L54.1668 41.4584L58.5418 45.8334ZM50.0002 91.6667C44.2363 91.6667 38.8196 90.5723 33.7502 88.3834C28.6807 86.1973 24.271 83.2292 20.521 79.4792C16.771 75.7292 13.8029 71.3195 11.6168 66.25C9.42794 61.1806 8.3335 55.7639 8.3335 50C8.3335 44.2361 9.42794 38.8195 11.6168 33.75C13.8029 28.6806 16.771 24.2709 20.521 20.5209C24.271 16.7709 28.6807 13.8014 33.7502 11.6125C38.8196 9.42643 44.2363 8.33337 50.0002 8.33337C55.764 8.33337 61.1807 9.42643 66.2502 11.6125C71.3196 13.8014 75.7293 16.7709 79.4793 20.5209C83.2293 24.2709 86.1974 28.6806 88.3835 33.75C90.5724 38.8195 91.6668 44.2361 91.6668 50C91.6668 55.7639 90.5724 61.1806 88.3835 66.25C86.1974 71.3195 83.2293 75.7292 79.4793 79.4792C75.7293 83.2292 71.3196 86.1973 66.2502 88.3834C61.1807 90.5723 55.764 91.6667 50.0002 91.6667ZM50.0002 83.3334C59.3057 83.3334 67.1877 80.1042 73.646 73.6459C80.1043 67.1875 83.3335 59.3056 83.3335 50C83.3335 40.6945 80.1043 32.8125 73.646 26.3542C67.1877 19.8959 59.3057 16.6667 50.0002 16.6667C40.6946 16.6667 32.8127 19.8959 26.3543 26.3542C19.896 32.8125 16.6668 40.6945 16.6668 50C16.6668 59.3056 19.896 67.1875 26.3543 73.6459C32.8127 80.1042 40.6946 83.3334 50.0002 83.3334Z" fill="#1C1B1F"/>
</g>
</svg>
