<svg width="13" height="12" viewBox="0 0 13 12" fill="none" xmlns="http://www.w3.org/2000/svg">
<path d="M11.4738 11.7158C10.13 11.7158 8.82021 11.4162 7.54438 10.8171C6.26813 10.2183 5.13792 9.42665 4.15375 8.44207C3.16917 7.4579 2.37751 6.3277 1.77876 5.05145C1.17959 3.77561 0.880005 2.46582 0.880005 1.12207C0.880005 0.93457 0.942505 0.77832 1.0675 0.65332C1.1925 0.52832 1.34876 0.46582 1.53626 0.46582H4.06751C4.21334 0.46582 4.34355 0.512695 4.45813 0.606445C4.57271 0.700195 4.64042 0.819987 4.66125 0.96582L5.0675 3.15332C5.08834 3.29915 5.08584 3.43186 5.06 3.55145C5.03375 3.67145 4.97375 3.77832 4.88 3.87207L3.36438 5.40332C3.80188 6.15332 4.35146 6.85645 5.01313 7.5127C5.67438 8.16894 6.40084 8.73665 7.1925 9.21582L8.66125 7.74707C8.755 7.65332 8.8775 7.5829 9.02876 7.53582C9.17959 7.48915 9.32792 7.47624 9.47375 7.49707L11.63 7.93457C11.7758 7.96582 11.8956 8.03603 11.9894 8.1452C12.0831 8.25478 12.13 8.38249 12.13 8.52832V11.0596C12.13 11.2471 12.0675 11.4033 11.9425 11.5283C11.8175 11.6533 11.6613 11.7158 11.4738 11.7158ZM2.77063 4.21582L3.80188 3.18457L3.53625 1.71582H2.14563C2.19771 2.1429 2.27063 2.56478 2.36438 2.98145C2.45813 3.39811 2.59355 3.80957 2.77063 4.21582ZM8.36438 9.80957C8.77063 9.98665 9.1848 10.1273 9.60688 10.2314C10.0285 10.3356 10.4529 10.4033 10.88 10.4346V9.05957L9.41125 8.7627L8.36438 9.80957Z" fill="white"/>
</svg>
