<svg width="19" height="19" viewBox="0 0 19 19" fill="none" xmlns="http://www.w3.org/2000/svg">
<path d="M16.9548 18.6642C14.8048 18.6642 12.7092 18.1848 10.6678 17.2262C8.62582 16.2682 6.81749 15.0015 5.24282 13.4262C3.66749 11.8515 2.40082 10.0432 1.44282 8.00115C0.484155 5.95982 0.00482178 3.86415 0.00482178 1.71415C0.00482178 1.41415 0.104822 1.16415 0.304822 0.964154C0.504822 0.764154 0.754822 0.664154 1.05482 0.664154H5.10482C5.33816 0.664154 5.54649 0.739154 5.72982 0.889154C5.91316 1.03915 6.02149 1.23082 6.05482 1.46415L6.70482 4.96415C6.73815 5.19749 6.73415 5.40982 6.69282 5.60115C6.65082 5.79315 6.55482 5.96415 6.40482 6.11415L3.97982 8.56415C4.67982 9.76415 5.55915 10.8892 6.61782 11.9392C7.67582 12.9892 8.83816 13.8975 10.1048 14.6642L12.4548 12.3142C12.6048 12.1642 12.8008 12.0515 13.0428 11.9762C13.2842 11.9015 13.5215 11.8808 13.7548 11.9142L17.2048 12.6142C17.4382 12.6642 17.6298 12.7765 17.7798 12.9512C17.9298 13.1265 18.0048 13.3308 18.0048 13.5642V17.6142C18.0048 17.9142 17.9048 18.1642 17.7048 18.3642C17.5048 18.5642 17.2548 18.6642 16.9548 18.6642ZM3.02982 6.66415L4.67982 5.01415L4.25482 2.66415H2.02982C2.11316 3.34749 2.22982 4.02249 2.37982 4.68915C2.52982 5.35582 2.74649 6.01415 3.02982 6.66415ZM11.9798 15.6142C12.6298 15.8975 13.2925 16.1225 13.9678 16.2892C14.6425 16.4558 15.3215 16.5642 16.0048 16.6142V14.4142L13.6548 13.9392L11.9798 15.6142Z" fill="black"/>
</svg>
