<svg width="21" height="21" viewBox="0 0 21 21" fill="none" xmlns="http://www.w3.org/2000/svg">
<path d="M10.005 18.0908C12.1267 18.0908 14.1616 17.248 15.6619 15.7477C17.1622 14.2474 18.005 12.2126 18.005 10.0908C18.005 7.96909 17.1622 5.93426 15.6619 4.43397C14.1616 2.93368 12.1267 2.09082 10.005 2.09082C7.88327 2.09082 5.84844 2.93368 4.34815 4.43397C2.84786 5.93426 2.005 7.96909 2.005 10.0908C2.005 12.2126 2.84786 14.2474 4.34815 15.7477C5.84844 17.248 7.88327 18.0908 10.005 18.0908ZM10.005 20.0908C4.48201 20.0908 0.00500488 15.6138 0.00500488 10.0908C0.00500488 4.56782 4.48201 0.0908203 10.005 0.0908203C15.528 0.0908203 20.005 4.56782 20.005 10.0908C20.005 15.6138 15.528 20.0908 10.005 20.0908ZM6.89501 11.2608L4.39701 10.4818C3.85701 10.3168 3.854 9.94482 4.518 9.67782L14.251 5.91782C14.816 5.68782 15.136 5.97882 14.953 6.70782L13.296 14.5278C13.18 15.0848 12.845 15.2178 12.38 14.9608L9.82901 13.0728L8.64001 14.2208C8.51801 14.3388 8.419 14.4398 8.231 14.4648C8.044 14.4908 7.89001 14.4348 7.77701 14.1248L6.90701 11.2538L6.89501 11.2608Z" fill="white"/>
</svg>
