<svg width="21" height="21" viewBox="0 0 21 21" fill="none" xmlns="http://www.w3.org/2000/svg">
<path d="M10.0048 18.5927C12.1265 18.5927 14.1613 17.7499 15.6616 16.2496C17.1619 14.7493 18.0048 12.7145 18.0048 10.5927C18.0048 8.47101 17.1619 6.43618 15.6616 4.93589C14.1613 3.4356 12.1265 2.59274 10.0048 2.59274C7.88303 2.59274 5.8482 3.4356 4.34791 4.93589C2.84762 6.43618 2.00476 8.47101 2.00476 10.5927C2.00476 12.7145 2.84762 14.7493 4.34791 16.2496C5.8482 17.7499 7.88303 18.5927 10.0048 18.5927ZM10.0048 20.5927C4.48176 20.5927 0.00476074 16.1157 0.00476074 10.5927C0.00476074 5.06974 4.48176 0.592743 10.0048 0.592743C15.5278 0.592743 20.0048 5.06974 20.0048 10.5927C20.0048 16.1157 15.5278 20.5927 10.0048 20.5927ZM6.89476 11.7627L4.39676 10.9837C3.85676 10.8187 3.85376 10.4467 4.51776 10.1797L14.2508 6.41974C14.8158 6.18974 15.1358 6.48074 14.9528 7.20974L13.2958 15.0297C13.1798 15.5867 12.8448 15.7197 12.3798 15.4627L9.82876 13.5747L8.63976 14.7227C8.51776 14.8407 8.41876 14.9417 8.23076 14.9667C8.04376 14.9927 7.88976 14.9367 7.77676 14.6267L6.90676 11.7557L6.89476 11.7627Z" fill="black"/>
</svg>
