<svg width="101" height="101" viewBox="0 0 101 101" fill="none" xmlns="http://www.w3.org/2000/svg">
<path d="M50.005 100.588C22.39 100.588 0.00500488 78.205 0.00500488 50.5928C0.00500488 22.9805 22.39 0.597748 50.005 0.597748C77.62 0.597748 100.005 22.9805 100.005 50.5928C100.005 78.205 77.62 100.588 50.005 100.588ZM50.005 90.5888C60.6137 90.5888 70.7878 86.3749 78.2893 78.8742C85.7907 71.3735 90.005 61.2004 90.005 50.5928C90.005 39.9852 85.7907 29.812 78.2893 22.3113C70.7878 14.8106 60.6137 10.5968 50.005 10.5968C39.3963 10.5968 29.2222 14.8106 21.7207 22.3113C14.2193 29.812 10.005 39.9852 10.005 50.5928C10.005 61.2004 14.2193 71.3735 21.7207 78.8742C29.2222 86.3749 39.3963 90.5888 50.005 90.5888ZM55.005 50.5928H75.005V60.5918H45.005V25.5953H55.005V50.5928Z" fill="black" fill-opacity="0.8"/>
</svg>
