<svg width="21" height="21" viewBox="0 0 21 21" fill="none" xmlns="http://www.w3.org/2000/svg">
<path d="M5.25802 16.5848L5.98202 17.0078C7.20296 17.7199 8.59161 18.0937 10.005 18.0908C11.5873 18.0908 13.134 17.6216 14.4496 16.7426C15.7652 15.8635 16.7906 14.6141 17.3961 13.1523C18.0016 11.6905 18.16 10.0819 17.8513 8.5301C17.5426 6.97825 16.7807 5.55279 15.6619 4.43397C14.5431 3.31515 13.1176 2.55322 11.5657 2.24454C10.0139 1.93586 8.40536 2.09428 6.94355 2.69978C5.48174 3.30529 4.23231 4.33067 3.35326 5.64626C2.47421 6.96185 2.00502 8.50857 2.00502 10.0908C2.00502 11.5268 2.38202 12.9038 3.08902 14.1148L3.51102 14.8388L2.85802 17.2398L5.25802 16.5848ZM0.00901826 20.0908L1.36102 15.1228C0.470156 13.5957 0.00211425 11.8588 0.00501832 10.0908C0.00501832 4.56782 4.48202 0.0908203 10.005 0.0908203C15.528 0.0908203 20.005 4.56782 20.005 10.0908C20.005 15.6138 15.528 20.0908 10.005 20.0908C8.2378 20.0937 6.50167 19.626 4.97502 18.7358L0.00901826 20.0908ZM6.39602 5.39882C6.53002 5.38882 6.66502 5.38882 6.79902 5.39482C6.85302 5.39882 6.90702 5.40482 6.96102 5.41082C7.12002 5.42882 7.29502 5.52582 7.35402 5.65982C7.65202 6.33582 7.94202 7.01682 8.22202 7.69982C8.28402 7.85182 8.24702 8.04682 8.12902 8.23682C8.04786 8.3653 7.96008 8.48947 7.86602 8.60882C7.75302 8.75382 7.51002 9.01982 7.51002 9.01982C7.51002 9.01982 7.41102 9.13782 7.44902 9.28482C7.46302 9.34082 7.50902 9.42182 7.55102 9.48982L7.61002 9.58482C7.86602 10.0118 8.21002 10.4448 8.63002 10.8528C8.75002 10.9688 8.86702 11.0878 8.99302 11.1988C9.46102 11.6118 9.99102 11.9488 10.563 12.1988L10.568 12.2008C10.653 12.2378 10.696 12.2578 10.82 12.3108C10.882 12.3368 10.946 12.3598 11.011 12.3768C11.0782 12.3939 11.1489 12.3907 11.2143 12.3676C11.2796 12.3444 11.3366 12.3024 11.378 12.2468C12.102 11.3698 12.168 11.3128 12.174 11.3128V11.3148C12.2243 11.2679 12.2841 11.2323 12.3493 11.2104C12.4145 11.1885 12.4836 11.1808 12.552 11.1878C12.612 11.1918 12.673 11.2028 12.729 11.2278C13.26 11.4708 14.129 11.8498 14.129 11.8498L14.711 12.1108C14.809 12.1578 14.898 12.2688 14.901 12.3758C14.905 12.4428 14.911 12.5508 14.888 12.7488C14.856 13.0078 14.778 13.3188 14.7 13.4818C14.6466 13.5931 14.5757 13.695 14.49 13.7838C14.3891 13.8898 14.2786 13.9862 14.16 14.0718C14.119 14.1027 14.0773 14.1327 14.035 14.1618C13.9106 14.2407 13.7828 14.3141 13.652 14.3818C13.3946 14.5186 13.1102 14.5971 12.819 14.6118C12.634 14.6218 12.449 14.6358 12.263 14.6258C12.255 14.6258 11.695 14.5388 11.695 14.5388C10.2733 14.1649 8.95841 13.4643 7.85502 12.4928C7.62902 12.2938 7.42002 12.0798 7.20602 11.8668C6.31602 10.9818 5.64402 10.0268 5.23602 9.12482C5.02719 8.68211 4.91438 8.20022 4.90502 7.71082C4.9009 7.10367 5.09937 6.51249 5.46902 6.03082C5.54202 5.93682 5.61102 5.83882 5.73002 5.72582C5.85702 5.60582 5.93702 5.54182 6.02402 5.49782C6.13969 5.43985 6.26588 5.40584 6.39502 5.39782L6.39602 5.39882Z" fill="white"/>
</svg>
