<svg width="21" height="21" viewBox="0 0 21 21" fill="none" xmlns="http://www.w3.org/2000/svg">
<path d="M5.25802 17.1582L5.98202 17.5812C7.20296 18.2932 8.59161 18.6671 10.005 18.6642C11.5873 18.6642 13.134 18.195 14.4496 17.3159C15.7652 16.4369 16.7906 15.1874 17.3961 13.7256C18.0016 12.2638 18.16 10.6553 17.8513 9.10343C17.5426 7.55158 16.7807 6.12612 15.6619 5.0073C14.5431 3.88848 13.1176 3.12655 11.5657 2.81787C10.0139 2.50919 8.40536 2.66762 6.94355 3.27312C5.48174 3.87862 4.23231 4.904 3.35326 6.21959C2.47421 7.53519 2.00502 9.0819 2.00502 10.6642C2.00502 12.1002 2.38202 13.4772 3.08902 14.6882L3.51102 15.4122L2.85802 17.8132L5.25802 17.1582ZM0.00901826 20.6642L1.36102 15.6962C0.470156 14.169 0.00211425 12.4321 0.00501832 10.6642C0.00501832 5.14115 4.48202 0.664154 10.005 0.664154C15.528 0.664154 20.005 5.14115 20.005 10.6642C20.005 16.1872 15.528 20.6642 10.005 20.6642C8.2378 20.667 6.50167 20.1993 4.97502 19.3092L0.00901826 20.6642ZM6.39602 5.97215C6.53002 5.96215 6.66502 5.96215 6.79902 5.96815C6.85302 5.97215 6.90702 5.97815 6.96102 5.98415C7.12002 6.00215 7.29502 6.09915 7.35402 6.23315C7.65202 6.90915 7.94202 7.59015 8.22202 8.27315C8.28402 8.42515 8.24702 8.62015 8.12902 8.81015C8.04786 8.93863 7.96008 9.0628 7.86602 9.18215C7.75302 9.32715 7.51002 9.59315 7.51002 9.59315C7.51002 9.59315 7.41102 9.71115 7.44902 9.85815C7.46302 9.91415 7.50902 9.99515 7.55102 10.0632L7.61002 10.1582C7.86602 10.5852 8.21002 11.0182 8.63002 11.4262C8.75002 11.5422 8.86702 11.6612 8.99302 11.7722C9.46102 12.1852 9.99102 12.5222 10.563 12.7722L10.568 12.7742C10.653 12.8112 10.696 12.8312 10.82 12.8842C10.882 12.9102 10.946 12.9332 11.011 12.9502C11.0782 12.9673 11.1489 12.964 11.2143 12.9409C11.2796 12.9178 11.3366 12.8757 11.378 12.8202C12.102 11.9432 12.168 11.8862 12.174 11.8862V11.8882C12.2243 11.8412 12.2841 11.8056 12.3493 11.7837C12.4145 11.7618 12.4836 11.7541 12.552 11.7612C12.612 11.7652 12.673 11.7762 12.729 11.8012C13.26 12.0442 14.129 12.4232 14.129 12.4232L14.711 12.6842C14.809 12.7312 14.898 12.8422 14.901 12.9492C14.905 13.0162 14.911 13.1242 14.888 13.3222C14.856 13.5812 14.778 13.8922 14.7 14.0552C14.6466 14.1664 14.5757 14.2684 14.49 14.3572C14.3891 14.4631 14.2786 14.5595 14.16 14.6452C14.119 14.676 14.0773 14.706 14.035 14.7352C13.9106 14.8141 13.7828 14.8875 13.652 14.9552C13.3946 15.0919 13.1102 15.1704 12.819 15.1852C12.634 15.1952 12.449 15.2092 12.263 15.1992C12.255 15.1992 11.695 15.1122 11.695 15.1122C10.2733 14.7382 8.95841 14.0376 7.85502 13.0662C7.62902 12.8672 7.42002 12.6532 7.20602 12.4402C6.31602 11.5552 5.64402 10.6002 5.23602 9.69815C5.02719 9.25544 4.91438 8.77356 4.90502 8.28415C4.9009 7.67701 5.09937 7.08582 5.46902 6.60415C5.54202 6.51015 5.61102 6.41215 5.73002 6.29915C5.85702 6.17915 5.93702 6.11515 6.02402 6.07115C6.13969 6.01319 6.26588 5.97917 6.39502 5.97115L6.39602 5.97215Z" fill="#F1F1F1"/>
</svg>
