<svg width="21" height="21" viewBox="0 0 21 21" fill="none" xmlns="http://www.w3.org/2000/svg">
<path d="M5.25777 17.0867L5.98177 17.5097C7.20271 18.2218 8.59136 18.5956 10.0048 18.5927C11.587 18.5927 13.1337 18.1236 14.4493 17.2445C15.7649 16.3654 16.7903 15.116 17.3958 13.6542C18.0013 12.1924 18.1597 10.5839 17.8511 9.03202C17.5424 7.48017 16.7804 6.05471 15.6616 4.93589C14.5428 3.81707 13.1173 3.05514 11.5655 2.74646C10.0136 2.43778 8.40512 2.59621 6.94331 3.20171C5.4815 3.80721 4.23207 4.83259 3.35302 6.14818C2.47397 7.46377 2.00477 9.01049 2.00477 10.5927C2.00477 12.0287 2.38177 13.4057 3.08877 14.6167L3.51077 15.3407L2.85777 17.7417L5.25777 17.0867ZM0.00877412 20.5927L1.36077 15.6247C0.469912 14.0976 0.00187011 12.3607 0.00477417 10.5927C0.00477417 5.06974 4.48177 0.592743 10.0048 0.592743C15.5278 0.592743 20.0048 5.06974 20.0048 10.5927C20.0048 16.1157 15.5278 20.5927 10.0048 20.5927C8.23755 20.5956 6.50143 20.1279 4.97477 19.2377L0.00877412 20.5927ZM6.39577 5.90074C6.52977 5.89074 6.66477 5.89074 6.79877 5.89674C6.85277 5.90074 6.90677 5.90674 6.96077 5.91274C7.11977 5.93074 7.29477 6.02774 7.35377 6.16174C7.65177 6.83774 7.94177 7.51874 8.22177 8.20174C8.28377 8.35374 8.24677 8.54874 8.12877 8.73874C8.04762 8.86722 7.95983 8.99139 7.86577 9.11074C7.75277 9.25574 7.50977 9.52174 7.50977 9.52174C7.50977 9.52174 7.41077 9.63974 7.44877 9.78674C7.46277 9.84274 7.50877 9.92374 7.55077 9.99174L7.60977 10.0867C7.86577 10.5137 8.20977 10.9467 8.62977 11.3547C8.74977 11.4707 8.86677 11.5897 8.99277 11.7007C9.46077 12.1137 9.99077 12.4507 10.5628 12.7007L10.5678 12.7027C10.6528 12.7397 10.6958 12.7597 10.8198 12.8127C10.8818 12.8387 10.9458 12.8617 11.0108 12.8787C11.0779 12.8959 11.1487 12.8926 11.214 12.8695C11.2794 12.8463 11.3363 12.8043 11.3778 12.7487C12.1018 11.8717 12.1678 11.8147 12.1738 11.8147V11.8167C12.2241 11.7698 12.2838 11.7342 12.349 11.7123C12.4142 11.6904 12.4834 11.6827 12.5518 11.6897C12.6118 11.6937 12.6728 11.7047 12.7288 11.7297C13.2598 11.9727 14.1288 12.3517 14.1288 12.3517L14.7108 12.6127C14.8088 12.6597 14.8978 12.7707 14.9008 12.8777C14.9048 12.9447 14.9108 13.0527 14.8878 13.2507C14.8558 13.5097 14.7778 13.8207 14.6998 13.9837C14.6464 14.095 14.5755 14.1969 14.4898 14.2857C14.3889 14.3917 14.2784 14.4881 14.1598 14.5737C14.1187 14.6046 14.0771 14.6346 14.0348 14.6637C13.9104 14.7427 13.7826 14.8161 13.6518 14.8837C13.3943 15.0205 13.1099 15.099 12.8188 15.1137C12.6338 15.1237 12.4488 15.1377 12.2628 15.1277C12.2548 15.1277 11.6948 15.0407 11.6948 15.0407C10.273 14.6668 8.95816 13.9662 7.85477 12.9947C7.62877 12.7957 7.41977 12.5817 7.20577 12.3687C6.31577 11.4837 5.64377 10.5287 5.23577 9.62674C5.02694 9.18403 4.91414 8.70215 4.90477 8.21274C4.90065 7.60559 5.09912 7.01441 5.46877 6.53274C5.54177 6.43874 5.61077 6.34074 5.72977 6.22774C5.85677 6.10774 5.93677 6.04374 6.02377 5.99974C6.13945 5.94177 6.26564 5.90776 6.39477 5.89974L6.39577 5.90074Z" fill="black"/>
</svg>
