<svg width="131" height="54" viewBox="0 0 131 54" fill="none" xmlns="http://www.w3.org/2000/svg">
<path d="M1.40797 52.5928V43.7433L19.9769 27.4862C21.3689 26.2268 22.5538 25.075 23.5316 24.031C24.5093 22.9704 25.255 21.9098 25.7688 20.8492C26.2825 19.772 26.5394 18.6037 26.5394 17.3442C26.5394 15.9356 26.2328 14.7341 25.6196 13.7398C25.0065 12.7289 24.1613 11.95 23.0841 11.4031C22.0069 10.8563 20.7723 10.5828 19.3803 10.5828C17.9717 10.5828 16.737 10.8728 15.6764 11.4529C14.6158 12.0163 13.7872 12.8366 13.1906 13.9138C12.6106 14.991 12.3206 16.3002 12.3206 17.8414H0.662231C0.662231 14.3778 1.44111 11.3866 2.99888 8.86763C4.55664 6.34869 6.74414 4.40977 9.56138 3.05087C12.3952 1.67539 15.6847 0.987658 19.43 0.987658C23.2913 0.987658 26.6471 1.63396 29.4975 2.92658C32.3478 4.21919 34.5519 6.02554 36.1097 8.34561C37.684 10.6491 38.4712 13.3255 38.4712 16.3747C38.4712 18.3137 38.0817 20.236 37.3029 22.1418C36.524 24.0476 35.1236 26.1522 33.1019 28.4557C31.0967 30.7592 28.2463 33.5184 24.5507 36.7334L18.4605 42.3513V42.6744H39.0926V52.5928H1.40797ZM65.5353 53.2888C61.8232 53.2888 58.5253 52.6176 55.6418 51.2753C52.7583 49.933 50.4796 48.0852 48.8059 45.732C47.1487 43.3788 46.2869 40.6775 46.2206 37.6283H58.1525C58.2519 39.5009 59.0142 41.009 60.4394 42.1524C61.8646 43.2793 63.5632 43.8428 65.5353 43.8428C67.0765 43.8428 68.4437 43.503 69.6368 42.8236C70.83 42.1441 71.7663 41.1913 72.4458 39.9649C73.1252 38.722 73.4567 37.2968 73.4401 35.6894C73.4567 34.0487 73.117 32.6153 72.4209 31.3889C71.7415 30.1626 70.7969 29.2097 69.5871 28.5303C68.3939 27.8343 67.0185 27.4862 65.4607 27.4862C63.9858 27.4697 62.5855 27.7928 61.2597 28.4557C59.9505 29.1186 58.9562 30.0217 58.2768 31.1652L47.4138 29.1269L49.6262 1.68368H82.2895V11.602H59.7434L58.5751 23.6084H58.8733C59.7185 22.1998 61.0774 21.0397 62.9501 20.1283C64.8393 19.2003 66.9853 18.7362 69.3883 18.7362C72.4375 18.7362 75.1553 19.4488 77.5417 20.874C79.9446 22.2826 81.8338 24.2381 83.2093 26.7405C84.6013 29.2429 85.2974 32.1098 85.2974 35.3414C85.2974 38.838 84.4688 41.937 82.8116 44.6382C81.1709 47.3395 78.8674 49.4607 75.901 51.0019C72.9512 52.5265 69.496 53.2888 65.5353 53.2888ZM107.315 45.2348V9.2405H117.333V45.2348H107.315ZM94.3146 32.259V22.2164H130.309V32.259H94.3146Z" fill="black" fill-opacity="0.8"/>
</svg>
